<svg width="19" height="23" viewBox="0 0 19 23" fill="none" xmlns="http://www.w3.org/2000/svg">
<path fill-rule="evenodd" clip-rule="evenodd" d="M15.403 3.59092C14.5714 2.57734 13.5819 1.77364 12.4919 1.2264C11.4019 0.679151 10.233 0.399236 9.053 0.402867C4.105 0.402867 0.077 5.27879 0.075 11.2723C0.075 13.1878 0.488 15.0573 1.273 16.7064L0 22.3379L4.759 20.8256C6.07539 21.6932 7.5502 22.1482 9.049 22.149H9.053C14 22.149 18.028 17.2731 18.03 11.2796C18.0334 9.85139 17.803 8.43657 17.3521 7.11687C16.9012 5.79717 16.2387 4.59877 15.403 3.59092ZM9.053 20.3146H9.05C7.71352 20.3148 6.40163 19.8794 5.252 19.0542L4.98 18.858L2.156 19.7552L2.909 16.4219L2.732 16.0804C1.98479 14.6401 1.58923 12.9732 1.591 11.2723C1.593 6.29103 4.94 2.23845 9.056 2.23845C10.0363 2.23582 11.0072 2.4686 11.9127 2.92335C12.8181 3.37809 13.6401 4.04576 14.331 4.8877C15.0256 5.72563 15.5762 6.72195 15.9509 7.81907C16.3256 8.91618 16.517 10.0923 16.514 11.2796C16.512 16.2608 13.165 20.3146 9.053 20.3146ZM13.146 13.5474C12.921 13.4106 11.819 12.7543 11.613 12.6635C11.408 12.5727 11.259 12.5279 11.109 12.7991C10.959 13.0703 10.529 13.6818 10.398 13.8634C10.267 14.045 10.136 14.0668 9.912 13.9312C9.688 13.7956 8.965 13.5087 8.108 12.5836C7.441 11.8632 6.991 10.9744 6.86 10.702C6.729 10.4296 6.846 10.2831 6.959 10.1475C7.06 10.0264 7.183 9.83022 7.295 9.6716C7.407 9.51299 7.444 9.40038 7.519 9.21876C7.594 9.03714 7.557 8.87852 7.5 8.74291C7.444 8.60609 6.995 7.26936 6.808 6.72571C6.627 6.19901 6.442 6.26923 6.304 6.26197C6.16108 6.25489 6.01804 6.25166 5.875 6.25228C5.76126 6.25579 5.64934 6.28772 5.54626 6.34606C5.44318 6.4044 5.35117 6.48789 5.276 6.59131C5.07 6.86374 4.491 7.52 4.491 8.85673C4.491 10.1935 5.295 11.4854 5.407 11.667C5.519 11.8486 6.989 14.5911 9.239 15.768C9.775 16.0477 10.193 16.2148 10.518 16.3407C11.055 16.5478 11.544 16.5175 11.931 16.4485C12.362 16.371 13.258 15.7922 13.445 15.1578C13.632 14.5233 13.632 13.9797 13.576 13.8658C13.52 13.752 13.369 13.683 13.146 13.5474Z" fill="#4167B0"/>
</svg>
