<svg width="18" height="23" viewBox="0 0 18 23" fill="none" xmlns="http://www.w3.org/2000/svg">
<path d="M17.531 4.1636C17.2995 3.43976 16.9457 2.78241 16.4923 2.23365C16.0389 1.68488 15.4959 1.25678 14.898 0.976755C14.1983 0.658745 13.4592 0.486791 12.712 0.468216C11.749 0.417362 11.444 0.402832 9.002 0.402832C6.56 0.402832 6.247 0.402832 5.292 0.468216C4.54539 0.485841 3.80676 0.65783 3.108 0.976755C2.50994 1.25645 1.96676 1.68444 1.51333 2.23325C1.0599 2.78205 0.706228 3.43957 0.475 4.1636C0.212305 5.0107 0.0706145 5.90576 0.056 6.81043C0.013 7.97523 0 8.34452 0 11.3025C0 14.2593 -7.45058e-09 14.6359 0.056 15.7946C0.071 16.7003 0.212 17.5939 0.475 18.4427C0.706878 19.1664 1.0609 19.8237 1.51444 20.3724C1.96798 20.9212 2.51106 21.3493 3.109 21.6295C3.80643 21.9603 4.54537 22.1446 5.294 22.1744C6.257 22.2252 6.562 22.241 9.004 22.241C11.446 22.241 11.759 22.241 12.714 22.1744C13.4611 22.156 14.2002 21.9844 14.9 21.667C15.4978 21.3864 16.0406 20.9579 16.494 20.409C16.9473 19.8601 17.3012 19.2028 17.533 18.479C17.796 17.6314 17.937 16.7378 17.952 15.8322C17.995 14.6674 18.008 14.2981 18.008 11.3401C18.008 8.38206 18.008 8.00671 17.952 6.84796C17.9404 5.9305 17.7979 5.02237 17.531 4.1636ZM16.313 15.705C16.3066 16.4028 16.2014 17.0941 16.002 17.7489C15.8518 18.2197 15.6219 18.6473 15.3271 19.0041C15.0322 19.3609 14.679 19.639 14.29 19.8206C13.7552 20.0608 13.1904 20.1882 12.62 20.1971C11.67 20.2504 11.402 20.2637 8.966 20.2637C6.528 20.2637 6.279 20.2637 5.311 20.1971C4.74093 20.1887 4.17633 20.0613 3.642 19.8206C3.25169 19.6401 2.897 19.3625 2.60089 19.0056C2.30478 18.6488 2.07384 18.2206 1.923 17.7489C1.72645 17.1011 1.62131 16.418 1.612 15.728C1.569 14.5778 1.559 14.2533 1.559 11.3037C1.559 8.353 1.559 8.05151 1.612 6.87823C1.61846 6.18084 1.72366 5.48995 1.923 4.8356C2.228 3.88027 2.853 3.12836 3.642 2.7627C4.17659 2.52313 4.74102 2.39578 5.311 2.38614C6.262 2.33407 6.529 2.31954 8.966 2.31954C11.403 2.31954 11.653 2.31954 12.62 2.38614C13.1904 2.39444 13.7554 2.52183 14.29 2.7627C14.6789 2.94465 15.0321 3.22305 15.327 3.58003C15.6218 3.93701 15.8517 4.36468 16.002 4.8356C16.1986 5.48332 16.3037 6.16647 16.313 6.85644C16.356 8.00792 16.367 8.3312 16.367 11.2819C16.367 14.2315 16.367 14.5487 16.324 15.7062H16.313V15.705Z" fill="#4167B0"/>
</svg>
