<svg width="19" height="21" viewBox="0 0 19 21" fill="none" xmlns="http://www.w3.org/2000/svg">
<path d="M17.014 0.391113H1.01404C0.748822 0.391113 0.494468 0.511607 0.306931 0.726087C0.119395 0.940568 0.0140381 1.23147 0.0140381 1.53479V19.8336C0.0140381 20.1369 0.119395 20.4278 0.306931 20.6423C0.494468 20.8567 0.748822 20.9772 1.01404 20.9772H9.62904V13.0173H7.29104V9.90076H9.62904V7.61341C9.62904 4.95437 11.049 3.50534 13.129 3.50534C13.828 3.50305 14.528 3.54422 15.224 3.62771V6.3954H13.789C12.661 6.3954 12.441 7.01069 12.441 7.91077V9.89504H15.138L14.788 13.0115H12.44V20.9772H17.014C17.2793 20.9772 17.5336 20.8567 17.7211 20.6423C17.9087 20.4278 18.014 20.1369 18.014 19.8336V1.53479C18.014 1.23147 17.9087 0.940568 17.7211 0.726087C17.5336 0.511607 17.2793 0.391113 17.014 0.391113Z" fill="#4167B0"/>
</svg>
