<svg width="21" height="17" viewBox="0 0 21 17" fill="none" xmlns="http://www.w3.org/2000/svg">
<path d="M19.607 3.19774C19.4931 2.71443 19.2705 2.27366 18.9614 1.91931C18.6522 1.56496 18.2673 1.30938 17.845 1.17802C16.279 0.686237 10.014 0.678231 10.014 0.678231C10.014 0.678231 3.75 0.670225 2.183 1.14028C1.76093 1.27768 1.37682 1.53687 1.06757 1.89297C0.758311 2.24906 0.534287 2.69009 0.417002 3.17373C0.00400165 4.96472 1.46514e-06 8.67937 1.46514e-06 8.67937C1.46514e-06 8.67937 -0.00399852 12.4123 0.406001 14.185C0.636001 15.1651 1.311 15.9394 2.169 16.2036C3.751 16.6954 9.999 16.7034 9.999 16.7034C9.999 16.7034 16.264 16.7114 17.83 16.2425C18.2525 16.1113 18.6377 15.8564 18.9477 15.5027C19.2576 15.1491 19.4814 14.7091 19.597 14.2262C20.011 12.4363 20.014 8.72283 20.014 8.72283C20.014 8.72283 20.034 4.98874 19.607 3.19774ZM8.01 12.1207L8.015 5.25864L13.222 8.69538L8.01 12.1207Z" fill="#4167B0"/>
</svg>
