<svg width="67" height="67" viewBox="0 0 67 67" fill="none" xmlns="http://www.w3.org/2000/svg">
<g clip-path="url(#clip0_1505_25)">
<path d="M67 19.7514L56.1561 47.2486L48.4104 67H38.4701L32.5318 47.2486L24.2697 19.7514L22.7206 14.5877L20.6551 19.7514L9.94027 47.2486H0L10.7148 19.7514L18.3314 0H28.2717L34.21 19.7514L42.4721 47.2486L44.1503 52.5414L46.2158 47.2486L56.9306 19.7514H67Z" fill="#002856"/>
<path d="M54.3487 62.7393C54.736 62.7393 54.9942 62.8684 55.1233 62.9974C55.5106 63.2556 55.5106 63.5138 55.5106 63.772C55.5106 64.0302 55.3815 64.4175 55.1233 64.5466C54.9942 64.5466 54.8651 64.6757 54.736 64.6757L55.7688 66.0957H54.9942L54.0905 64.8048H53.9615V66.0957H53.316V62.8684H54.3487V62.7393ZM54.0905 64.2884H54.2196C54.3487 64.2884 54.8651 64.2884 54.8651 63.772C54.8651 63.2556 54.3487 63.2556 54.2196 63.2556H54.0905V64.2884Z" fill="#002856"/>
<path d="M54.4778 66.9997C53.0578 66.9997 51.8959 65.8379 51.8959 64.4178C51.8959 62.9978 53.0578 61.8359 54.4778 61.8359C55.8979 61.8359 57.0597 62.9978 57.0597 64.4178C57.0597 65.8379 55.8979 66.9997 54.4778 66.9997ZM54.4778 62.2232C53.316 62.2232 52.2832 63.1269 52.2832 64.4178C52.2832 65.7088 53.1869 66.6124 54.4778 66.6124C55.6397 66.6124 56.6724 65.7088 56.6724 64.4178C56.6724 63.1269 55.6397 62.2232 54.4778 62.2232Z" fill="#002856"/>
</g>
<defs>
<clipPath id="clip0_1505_25">
<rect width="67" height="67" fill="white"/>
</clipPath>
</defs>
</svg>
