<svg width="83" height="83" viewBox="0 0 83 83" fill="none" xmlns="http://www.w3.org/2000/svg">
<g clip-path="url(#clip0_1505_32)">
<path d="M41.3 12.2002L82.5 53.4002L53.5 82.4002L42.4 71.3002L44.1 69.6002L53.2 78.7002L53.5 79.0002L53.8 78.7002L78.8 53.7002L79.1 53.4002L78.8 53.0002L41.7 15.9002L41.4 15.6002L41 15.9002L16.7 40.1002L15 38.4002L41.3 12.2002Z" fill="#002856"/>
<path d="M11.2 42.2002L12.9 43.9002L3.7 53.0002L3.4 53.3002L3.7 53.6002L28.7 78.6002L29 78.9002L29.3 78.6002L65.7 42.2002L67.4 43.9002L29 82.4002L0 53.4002L11.2 42.2002Z" fill="#002856"/>
<path d="M41.3 0L76.4 35.1L71.4 40.1L69.7 38.4L72.6 35.5L72.9 35.2L72.6 34.9L41.6 3.9L41.3 3.6L41 3.7L10 34.7L9.70001 35L10 35.3L40.2 65.6L38.5 67.3L6.20001 35.1L41.3 0Z" fill="#002856"/>
<path d="M41.3 24.4004L46 29.1004L41.3 33.8004L36.6 29.1004L41.3 24.4004Z" fill="#002856"/>
<path d="M61.7 78.6996C62.1 78.6996 62.3 78.7996 62.4 78.8996C62.6 79.0996 62.7 79.2996 62.7 79.4996C62.7 79.7996 62.6 79.9996 62.4 80.1996C62.3 80.2996 62.2 80.2996 62.1 80.2996L63 81.4996H62.3L61.5 80.2996H61.4V81.4996H60.8V78.5996H61.7V78.6996ZM61.4 79.9996H61.6C61.7 79.9996 62.2 79.9996 62.2 79.5996C62.2 79.1996 61.8 79.1996 61.7 79.1996H61.5V79.9996H61.4Z" fill="#002856"/>
<path d="M61.8 82.3998C60.6 82.3998 59.5 81.3998 59.5 80.0998C59.5 78.8998 60.5 77.7998 61.8 77.7998C63 77.7998 64.1 78.7998 64.1 80.0998C64 81.3998 63 82.3998 61.8 82.3998ZM61.8 78.2998C60.8 78.2998 59.9 79.1998 59.9 80.1998C59.9 81.1998 60.8 82.0998 61.8 82.0998C62.8 82.0998 63.7 81.1998 63.7 80.1998C63.7 79.0998 62.8 78.2998 61.8 78.2998Z" fill="#002856"/>
</g>
<defs>
<clipPath id="clip0_1505_32">
<rect width="82.5" height="82.4" fill="white"/>
</clipPath>
</defs>
</svg>
